<svg xmlns="http://www.w3.org/2000/svg" viewBox="0 0 12 12"  fill-rule="evenodd"><rect width="12" height="12" fill="#da2229" rx="3"/><path fill="#fff" d="M9 3.588V2c-1.07 0-1.93.43-2.586 1.299a5.24 5.24 0 0 0-.647 1.157l-.484 1.26c-.123.388-.268.767-.433 1.136-.12.298-.27.582-.447.845a1.729 1.729 0 0 1-.582.519 1.81 1.81 0 0 1-.821.18V10c1.071 0 1.93-.438 2.586-1.299.201-.285.378-.589.529-.907l.41-1.002H8.25V5.195H7.11c.096-.238.209-.469.337-.69a2.04 2.04 0 0 1 .397-.492A1.5 1.5 0 0 1 8.35 3.7a1.79 1.79 0 0 1 .651-.112z"/></svg>