<svg xmlns="http://www.w3.org/2000/svg" width="9" height="12"  fill-rule="evenodd"><path fill="#e44d26" fill-rule="nonzero" d="M.819 10.805L0 2.309h9l-.82 8.495-3.686.945z"/><path d="M.837 0h.573v.523h.524V0h.573v1.584h-.573v-.531H1.41v.531H.837V0zm2.422.525h-.504V0h1.581v.525h-.504v1.059h-.573V.525zM4.587 0h.597l.367.557L5.918 0h.597v1.584h-.57V.799l-.394.563h-.01L5.147.799v.785h-.56V0zM6.8 0h.573v1.061h.805v.524H6.8V0z" fill="#333"/><g fill-rule="nonzero"><path fill="#f16529" d="M4.514 11.026l2.978-.764.701-7.259H4.514z"/><path d="M4.511 6.154H7.13l-.027.28-.282 2.919-2.31.592V8.861l1.257-.314.131-1.351H4.511V6.154zm0-2.109h2.822l-.101 1.042H4.511V4.045z" fill="#fff"/><path d="M4.514 6.154v1.042H1.993l-.304-3.151h2.825v1.042H2.921l.103 1.067h1.491zm0 2.706v1.084l-.005.001-2.308-.593-.158-1.636h1.131l.08.831 1.255.313.005-.001z" fill="#ebebeb"/></g></svg>