<svg xmlns="http://www.w3.org/2000/svg" width="16" height="16"  xmlns:v="https://vecta.io/nano"><path d="M8 0a8 8 0 1 1 0 16A8 8 0 0 1 8 0zm2.692 7.304a.47.47 0 1 0 .666.665l.332-.333a2.361 2.361 0 0 0 0-3.326 2.358 2.358 0 0 0-3.326 0l-1.49 1.487a2.36 2.36 0 0 0 .002 3.327.47.47 0 1 0 .665-.665 1.416 1.416 0 0 1 0-1.997l1.487-1.488c.55-.55 1.448-.55 1.998 0s.55 1.446 0 1.996l-.334.334zM5.307 8.696a.472.472 0 0 0-.665-.666l-.332.334a2.361 2.361 0 0 0 0 3.326 2.36 2.36 0 0 0 3.326 0l1.488-1.487a2.36 2.36 0 0 0 0-3.329.47.47 0 0 0-.665.667c.548.55.55 1.447 0 1.995l-1.489 1.49a1.417 1.417 0 0 1-1.996 0 1.416 1.416 0 0 1 0-1.998l.333-.332z" fill="#999"/></svg>