<svg xmlns="http://www.w3.org/2000/svg" xmlns:xlink="http://www.w3.org/1999/xlink" width="36" height="36" xmlns:v="https://vecta.io/nano"><defs><path d="M1 0h27a8 8 0 0 1 8 8v27h0L1 0z" id="A"/><filter x="-8.6%" y="-2.9%" width="111.4%" height="111.4%" id="B"><feOffset dx="-1" dy="1" in="SourceAlpha"/><feGaussianBlur stdDeviation=".5"/><feColorMatrix values="0 0 0 0 0   0 0 0 0 0   0 0 0 0 0  0 0 0 0.15418365 0"/></filter></defs><g fill-rule="evenodd"><use fill="#000" filter="url(#B)" xlink:href="#A"/><use fill="#e89000" xlink:href="#A"/><path d="M1 0H0l36 36v-1zm17.826 11.892l-.932-.932 1.162-4.792-2.977 2.977-.932-.932 4.524-4.524.932.932-1.165 4.801 2.983-2.983.929.929-4.524 4.524zm5.78 1.858l-1.79-1.79-1.212 1.212 2.101 2.101-.749.749-3.033-3.033 4.524-4.524 3.027 3.027-.755.755-2.094-2.094-1.078 1.078 1.79 1.79-.73.73zm4.009 5.32l3.828-2.61.929.929-5.528 3.521-.938-.938 2.29-3.763-3.763 2.29-.938-.938 3.521-5.528.929.929-2.601 3.825 3.959-2.467.789.789-2.477 3.962z" fill="#fff"/></g></svg>