<svg xmlns="http://www.w3.org/2000/svg" width="13" height="13"><path fill="#d16928" d="M6.502.5h0C3.188.5.5 3.188.5 6.502h0c0 3.315 2.688 6.002 6.002 6.002h0c3.315 0 6.002-2.688 6.002-6.002h0A6.01 6.01 0 0 0 6.502.5zm-2.42 5.82c0 .138-.074.237-.227.247-.128.01-.222-.104-.222-.262V4.477c0-.153.064-.252.217-.277.124-.02.232.094.232.257V6.32zm.439 1.141c-.158-.02-.212-.123-.212-.277V5.371c0-.153.059-.257.212-.271.139-.016.223.093.228.276v1.818c0 .168-.094.282-.228.267zm.692.602c-.129.015-.222-.098-.222-.256V5.964c0-.158.094-.276.217-.262.144.015.217.104.217.252v1.862c0 .144-.069.233-.212.247zm.85-.177c0 .173-.084.262-.223.252-.153-.01-.212-.108-.208-.252V6.049c0-.173.084-.262.223-.252.153.01.208.109.208.252v1.837zm.454.084c-.153 0-.217-.094-.217-.242V5.881c0-.178.074-.271.212-.267s.223.103.223.266v1.848c0 .148-.069.242-.218.242zm.889-.578c0 .168-.078.252-.227.257-.158.004-.237-.075-.242-.257V5.544c0-.178.084-.262.243-.257s.227.104.227.257l-.001 1.848zm.426.247c-.129 0-.218-.099-.223-.267V5.544c0-.153.059-.257.217-.267.134-.01.223.108.223.282v1.808c0 .168-.084.267-.217.272zm.894.158c0 .183-.084.281-.228.271-.168-.009-.212-.123-.212-.271V5.999c0-.188.079-.287.218-.287s.222.094.222.282v1.803zm.42 1.003c-.128.005-.228-.099-.228-.262V6.69c0-.144.069-.242.218-.257.124-.015.221.104.227.262v1.828c0 .163-.09.272-.217.277z"/></svg>