<svg xmlns="http://www.w3.org/2000/svg" width="12" height="12"><path fill="#232d38" d="M1.714 0h8.572C11.231 0 12 .768 12 1.714v8.572c0 .945-.769 1.714-1.714 1.714H1.714C.768 12 0 11.231 0 10.286V1.714C0 .768.768 0 1.714 0z"/><path fill="#fff" d="M6.595 6l1.461-2.59L8.761 6l-.705 2.589L6.595 6zm-.712.421l1.46 2.59-2.543-.67-1.837-1.92h2.92zm1.46-3.431l-1.46 2.589H2.962L4.799 3.66l2.544-.67zm2.086 2.129l-.892-3.405-3.326.913-.492.889-.999-.008L1.286 6 3.72 8.492l.999-.008.493.889 3.326.913.891-3.404L8.923 6l.506-.881z"/></svg>