<svg xmlns="http://www.w3.org/2000/svg" width="12" height="12"><path fill="#cd2327" d="M10.783 0H1.217C.545 0 0 .544 0 1.217v9.566C0 11.455.545 12 1.217 12h9.566c.673 0 1.217-.545 1.217-1.217V1.219C12.003.547 11.456 0 10.783 0zM7.374 1.172h1.042v1.042H7.374V1.172zm-1.894 0h1.042v1.042H5.48V1.172zm-1.896 0h1.042v1.042H3.584V1.172zm-.854 9.66H1.688V9.79H2.73v1.042zm0-8.617H1.688V1.172H2.73v1.043zm1.896 8.617H3.584V9.79h1.042v1.042zm1.895 0H5.478V9.79h1.043v1.042zm1.895 0H7.374V9.79h1.042v1.042zm.23-4.535l-4 2.311a.34.34 0 0 1-.51-.294V3.692a.34.34 0 0 1 .51-.294l4 2.311c.229.129.229.458 0 .588zm1.667 4.535H9.271V9.79h1.042v1.042zm0-8.617H9.271V1.172h1.042v1.043z"/></svg>