<svg xmlns="http://www.w3.org/2000/svg" width="29" height="12"  fill="#454545"><path d="M28.054 7.968h-.195v.507h-.17v-.507h-.195v-.147h.561v.147m.075-.146h.25l.113.436h.001l.113-.436h.251v.653h-.16v-.496h-.002l-.138.496h-.13l-.138-.496h-.002v.496h-.159v-.653m-6.819.616a1.83 1.83 0 0 1-.719.15c-.383 0-.727-.066-1.031-.199s-.563-.316-.772-.55a2.42 2.42 0 0 1-.482-.823 3.01 3.01 0 0 1-.168-1.019c0-.373.056-.72.167-1.04a2.5 2.5 0 0 1 .481-.836 2.19 2.19 0 0 1 .771-.561 2.52 2.52 0 0 1 1.031-.203 2.42 2.42 0 0 1 .744.116 2.12 2.12 0 0 1 .649.34c.193.15.353.335.479.554a1.87 1.87 0 0 1 .231.755h-1.049c-.064-.28-.19-.489-.377-.629a1.1 1.1 0 0 0-.678-.209c-.247 0-.457.048-.63.144a1.19 1.19 0 0 0-.419.385 1.68 1.68 0 0 0-.234.55 2.75 2.75 0 0 0-.073.637c0 .21.024.415.073.613a1.7 1.7 0 0 0 .234.536 1.21 1.21 0 0 0 .42.381c.173.096.383.144.63.144.364 0 .645-.092.844-.274s.313-.45.347-.799h-1.105V5.78h2.094v2.699h-.697l-.111-.566a1.63 1.63 0 0 1-.65.527m3.239-4.957v4.063h2.433v.927h-3.527v-4.99h1.095m-5.179 5.61c-1.675 1.019-4.184 1.599-6.982 1.599-5.043 0-9.132-2.101-9.132-4.691s4.088-4.69 9.132-4.69c2.81 0 5.328.591 7.003 1.616C17.563 1.209 14.285.002 10.537.002 4.796.001.142 2.686.142 5.999S4.794 12 10.535 12.001c3.733 0 7.003-1.203 8.836-2.908"/><path d="M10.171 3.095L9.209 7.26 8.046 3.095h-.883l-1.16 4.167-.966-4.167h-.909l1.428 5.43h.853L7.612 4.26l1.187 4.265h.856l1.479-5.43h-.962m3.367 2.285a1.34 1.34 0 0 0-.497-.431c-.202-.1-.436-.151-.695-.151-.292 0-.555.053-.782.157a1.47 1.47 0 0 0-.546.433c-.272.349-.416.839-.416 1.42a2.3 2.3 0 0 0 .109.72 1.68 1.68 0 0 0 .319.576c.292.34.709.519 1.204.519.26 0 .473-.027.649-.084a1.31 1.31 0 0 0 .341-.167 1.47 1.47 0 0 0 .296-.262 1.6 1.6 0 0 0 .198-.286 1.42 1.42 0 0 0 .162-.452l.007-.061h-.709l-.004.051c-.018.231-.32.642-.859.642-.77 0-.954-.557-.966-1.047h2.578v-.055a3.53 3.53 0 0 0-.096-.858 1.96 1.96 0 0 0-.293-.665h0zm-1.273.058c.571 0 .876.308.932.939h-1.847c.027-.515.435-.939.915-.939m5.231.464a1.72 1.72 0 0 0-.301-.575c-.131-.162-.299-.297-.487-.386a1.51 1.51 0 0 0-.654-.14h0a1.33 1.33 0 0 0-.596.142 1.27 1.27 0 0 0-.388.314V3.591h-.706v4.935h.672V8.19c.06.077.135.158.235.231.19.137.427.206.701.206a1.53 1.53 0 0 0 .782-.196 1.45 1.45 0 0 0 .503-.495c.116-.187.206-.405.264-.652a2.93 2.93 0 0 0 .077-.673c0-.252-.034-.49-.103-.707zm-.635.801c0 .388-.077.712-.225.939-.157.242-.386.364-.678.364-.423 0-.916-.295-.916-1.128 0-.399.05-.706.151-.939.145-.336.392-.499.751-.499.383 0 .639.15.782.459.119.255.134.563.134.804"/></svg>